<?xml version="1.0" encoding="UTF-8" standalone="no"?>
<!DOCTYPE svg PUBLIC "-//W3C//DTD SVG 1.1//EN"
 "http://www.w3.org/Graphics/SVG/1.1/DTD/svg11.dtd">
<!-- Generated by graphviz version 2.40.1 (20161225.0304)
 -->
<!-- Title: G Pages: 1 -->
<svg width="817pt" height="474pt"
 viewBox="0.00 0.00 817.44 474.00" xmlns="http://www.w3.org/2000/svg" xmlns:xlink="http://www.w3.org/1999/xlink">
<g id="graph0" class="graph" transform="scale(1 1) rotate(0) translate(4 470)">
<title>G</title>
<polygon fill="#ffffff" stroke="transparent" points="-4,4 -4,-470 813.444,-470 813.444,4 -4,4"/>
<!-- A0 -->
<g id="node1" class="node">
<title>A0</title>
<polygon fill="#fff8dc" stroke="#000000" points="306.387,-466 258.387,-466 258.387,-430 312.387,-430 312.387,-460 306.387,-466"/>
<polyline fill="none" stroke="#000000" points="306.387,-466 306.387,-460 "/>
<polyline fill="none" stroke="#000000" points="312.387,-460 306.387,-460 "/>
<text text-anchor="middle" x="285.387" y="-445" font-family="Helvetica,sans-Serif" font-size="10.00" fill="#000000">IO</text>
</g>
<!-- A1 -->
<g id="node2" class="node">
<title>A1</title>
<polygon fill="none" stroke="#000000" points="398.401,-466 330.373,-466 330.373,-430 398.401,-430 398.401,-466"/>
<text text-anchor="middle" x="364.387" y="-445" font-family="Helvetica,sans-Serif" font-size="10.00" fill="#000000">ios_base</text>
</g>
<!-- A2 -->
<g id="node3" class="node">
<title>A2</title>
<polygon fill="none" stroke="#000000" points="399.0618,-380 329.7122,-380 329.7122,-344 399.0618,-344 399.0618,-380"/>
<text text-anchor="middle" x="364.387" y="-359" font-family="Helvetica,sans-Serif" font-size="10.00" fill="#000000">basic_ios</text>
</g>
<!-- A1&#45;&gt;A2 -->
<g id="edge1" class="edge">
<title>A1&#45;&gt;A2</title>
<path fill="none" stroke="#000000" d="M364.387,-419.4762C364.387,-406.5329 364.387,-391.6086 364.387,-380.2121"/>
<polygon fill="none" stroke="#000000" points="360.8871,-419.7616 364.387,-429.7616 367.8871,-419.7616 360.8871,-419.7616"/>
</g>
<!-- A3 -->
<g id="node4" class="node">
<title>A3</title>
<polygon fill="none" stroke="#000000" points="291.0576,-294 201.7164,-294 201.7164,-258 291.0576,-258 291.0576,-294"/>
<text text-anchor="middle" x="246.387" y="-273" font-family="Helvetica,sans-Serif" font-size="10.00" fill="#000000">basic_istream</text>
</g>
<!-- A2&#45;&gt;A3 -->
<g id="edge2" class="edge">
<title>A2&#45;&gt;A3</title>
<path fill="none" stroke="#000000" d="M331.4908,-338.0248C312.3534,-324.0772 288.6265,-306.7847 271.0911,-294.0047"/>
<polygon fill="none" stroke="#000000" points="329.5074,-340.9102 339.6503,-343.9716 333.6303,-335.2532 329.5074,-340.9102"/>
</g>
<!-- A4 -->
<g id="node5" class="node">
<title>A4</title>
<polygon fill="none" stroke="#000000" points="589.897,-294 496.877,-294 496.877,-258 589.897,-258 589.897,-294"/>
<text text-anchor="middle" x="543.387" y="-273" font-family="Helvetica,sans-Serif" font-size="10.00" fill="#000000">basic_ostream</text>
</g>
<!-- A2&#45;&gt;A4 -->
<g id="edge3" class="edge">
<title>A2&#45;&gt;A4</title>
<path fill="none" stroke="#000000" d="M408.6663,-340.7261C438.4987,-326.3933 477.4227,-307.6923 505.7562,-294.0796"/>
<polygon fill="none" stroke="#000000" points="406.8229,-337.7288 399.3249,-345.2142 409.8543,-344.0383 406.8229,-337.7288"/>
</g>
<!-- A5 -->
<g id="node6" class="node">
<title>A5</title>
<polygon fill="none" stroke="#000000" points="453.1163,-208 357.6577,-208 357.6577,-172 453.1163,-172 453.1163,-208"/>
<text text-anchor="middle" x="405.387" y="-187" font-family="Helvetica,sans-Serif" font-size="10.00" fill="#000000">basic_iostream</text>
</g>
<!-- A3&#45;&gt;A5 -->
<g id="edge4" class="edge">
<title>A3&#45;&gt;A5</title>
<path fill="none" stroke="#000000" d="M288.6455,-253.1432C314.7737,-239.011 347.8354,-221.1286 372.0993,-208.0047"/>
<polygon fill="none" stroke="#000000" points="286.8493,-250.1355 279.7186,-257.9716 290.1796,-256.2926 286.8493,-250.1355"/>
</g>
<!-- A6 -->
<g id="node7" class="node">
<title>A6</title>
<polygon fill="#0000ff" stroke="#000000" points="60.6614,-208 .1126,-208 .1126,-172 60.6614,-172 60.6614,-208"/>
<text text-anchor="middle" x="30.387" y="-187" font-family="Helvetica,sans-Serif" font-size="10.00" fill="#ffffff">istream</text>
</g>
<!-- A3&#45;&gt;A6 -->
<g id="edge6" class="edge">
<title>A3&#45;&gt;A6</title>
<path fill="none" stroke="#000000" d="M192.0945,-255.8921C157.1492,-242.7362 110.861,-224.9109 70.387,-208 67.2953,-206.7082 64.0848,-205.3288 60.8876,-203.9299"/>
<polygon fill="none" stroke="#000000" points="191.0436,-259.2361 201.6358,-259.4743 193.5041,-252.6827 191.0436,-259.2361"/>
</g>
<!-- A9 -->
<g id="node10" class="node">
<title>A9</title>
<polygon fill="none" stroke="#000000" points="171.8371,-208 78.9369,-208 78.9369,-172 171.8371,-172 171.8371,-208"/>
<text text-anchor="middle" x="125.387" y="-187" font-family="Helvetica,sans-Serif" font-size="10.00" fill="#000000">basic_ifstream</text>
</g>
<!-- A3&#45;&gt;A9 -->
<g id="edge9" class="edge">
<title>A3&#45;&gt;A9</title>
<path fill="none" stroke="#000000" d="M212.6544,-252.0248C193.0305,-238.0772 168.7004,-220.7847 150.7192,-208.0047"/>
<polygon fill="none" stroke="#000000" points="210.8428,-255.0311 221.0214,-257.9716 214.8981,-249.3254 210.8428,-255.0311"/>
</g>
<!-- A15 -->
<g id="node16" class="node">
<title>A15</title>
<polygon fill="none" stroke="#000000" points="303.5021,-208 189.2719,-208 189.2719,-172 303.5021,-172 303.5021,-208"/>
<text text-anchor="middle" x="246.387" y="-187" font-family="Helvetica,sans-Serif" font-size="10.00" fill="#000000">basic_istringstream</text>
</g>
<!-- A3&#45;&gt;A15 -->
<g id="edge15" class="edge">
<title>A3&#45;&gt;A15</title>
<path fill="none" stroke="#000000" d="M246.387,-247.4762C246.387,-234.5329 246.387,-219.6086 246.387,-208.2121"/>
<polygon fill="none" stroke="#000000" points="242.8871,-247.7616 246.387,-257.7616 249.8871,-247.7616 242.8871,-247.7616"/>
</g>
<!-- A4&#45;&gt;A5 -->
<g id="edge5" class="edge">
<title>A4&#45;&gt;A5</title>
<path fill="none" stroke="#000000" d="M505.8155,-252.5859C483.282,-238.5433 455.0616,-220.9566 434.2782,-208.0047"/>
<polygon fill="none" stroke="#000000" points="504.1196,-255.653 514.4577,-257.9716 507.8219,-249.7122 504.1196,-255.653"/>
</g>
<!-- A7 -->
<g id="node8" class="node">
<title>A7</title>
<polygon fill="#0000ff" stroke="#000000" points="809.5011,-208 745.2729,-208 745.2729,-172 809.5011,-172 809.5011,-208"/>
<text text-anchor="middle" x="777.387" y="-187" font-family="Helvetica,sans-Serif" font-size="10.00" fill="#ffffff">ostream</text>
</g>
<!-- A4&#45;&gt;A7 -->
<g id="edge7" class="edge">
<title>A4&#45;&gt;A7</title>
<path fill="none" stroke="#000000" d="M599.6898,-257.406C638.4056,-244.3174 690.8495,-225.9889 736.387,-208 739.279,-206.8575 742.2683,-205.6326 745.2538,-204.379"/>
<polygon fill="none" stroke="#000000" points="598.5149,-254.1085 590.1551,-260.6174 600.7492,-260.7423 598.5149,-254.1085"/>
</g>
<!-- A10 -->
<g id="node11" class="node">
<title>A10</title>
<polygon fill="none" stroke="#000000" points="591.1762,-208 495.5978,-208 495.5978,-172 591.1762,-172 591.1762,-208"/>
<text text-anchor="middle" x="543.387" y="-187" font-family="Helvetica,sans-Serif" font-size="10.00" fill="#000000">basic_ofstream</text>
</g>
<!-- A4&#45;&gt;A10 -->
<g id="edge10" class="edge">
<title>A4&#45;&gt;A10</title>
<path fill="none" stroke="#000000" d="M543.387,-247.4762C543.387,-234.5329 543.387,-219.6086 543.387,-208.2121"/>
<polygon fill="none" stroke="#000000" points="539.8871,-247.7616 543.387,-257.7616 546.8871,-247.7616 539.8871,-247.7616"/>
</g>
<!-- A16 -->
<g id="node17" class="node">
<title>A16</title>
<polygon fill="none" stroke="#000000" points="727.3429,-208 609.4311,-208 609.4311,-172 727.3429,-172 727.3429,-208"/>
<text text-anchor="middle" x="668.387" y="-187" font-family="Helvetica,sans-Serif" font-size="10.00" fill="#000000">basic_ostringstream</text>
</g>
<!-- A4&#45;&gt;A16 -->
<g id="edge16" class="edge">
<title>A4&#45;&gt;A16</title>
<path fill="none" stroke="#000000" d="M577.9622,-252.2122C598.2818,-238.2324 623.5585,-220.842 642.2174,-208.0047"/>
<polygon fill="none" stroke="#000000" points="575.8458,-249.42 569.5911,-257.9716 579.8135,-255.1869 575.8458,-249.42"/>
</g>
<!-- A8 -->
<g id="node9" class="node">
<title>A8</title>
<polygon fill="#0000ff" stroke="#000000" points="545.7208,-122 479.0532,-122 479.0532,-86 545.7208,-86 545.7208,-122"/>
<text text-anchor="middle" x="512.387" y="-101" font-family="Helvetica,sans-Serif" font-size="10.00" fill="#ffffff">iostream</text>
</g>
<!-- A5&#45;&gt;A8 -->
<g id="edge8" class="edge">
<title>A5&#45;&gt;A8</title>
<path fill="none" stroke="#000000" d="M435.9192,-165.4601C453.1479,-151.6127 474.299,-134.6128 489.9858,-122.0047"/>
<polygon fill="none" stroke="#000000" points="433.4195,-162.9788 427.8177,-171.9716 437.8048,-168.4349 433.4195,-162.9788"/>
</g>
<!-- A11 -->
<g id="node12" class="node">
<title>A11</title>
<polygon fill="none" stroke="#000000" points="331.6173,-122 241.1567,-122 241.1567,-86 331.6173,-86 331.6173,-122"/>
<text text-anchor="middle" x="286.387" y="-101" font-family="Helvetica,sans-Serif" font-size="10.00" fill="#000000">basic_fstream</text>
</g>
<!-- A5&#45;&gt;A11 -->
<g id="edge11" class="edge">
<title>A5&#45;&gt;A11</title>
<path fill="none" stroke="#000000" d="M372.212,-166.0248C352.9124,-152.0772 328.9844,-134.7847 311.3005,-122.0047"/>
<polygon fill="none" stroke="#000000" points="370.2856,-168.9509 380.4407,-171.9716 374.3858,-163.2774 370.2856,-168.9509"/>
</g>
<!-- A17 -->
<g id="node18" class="node">
<title>A17</title>
<polygon fill="none" stroke="#000000" points="461.283,-122 349.491,-122 349.491,-86 461.283,-86 461.283,-122"/>
<text text-anchor="middle" x="405.387" y="-101" font-family="Helvetica,sans-Serif" font-size="10.00" fill="#000000">basic_stringstream</text>
</g>
<!-- A5&#45;&gt;A17 -->
<g id="edge17" class="edge">
<title>A5&#45;&gt;A17</title>
<path fill="none" stroke="#000000" d="M405.387,-161.4762C405.387,-148.5329 405.387,-133.6086 405.387,-122.2121"/>
<polygon fill="none" stroke="#000000" points="401.8871,-161.7616 405.387,-171.7616 408.8871,-161.7616 401.8871,-161.7616"/>
</g>
<!-- A12 -->
<g id="node13" class="node">
<title>A12</title>
<polygon fill="#ff0000" stroke="#000000" points="119.9416,-122 56.8324,-122 56.8324,-86 119.9416,-86 119.9416,-122"/>
<text text-anchor="middle" x="88.387" y="-101" font-family="Helvetica,sans-Serif" font-size="10.00" fill="#000000">ifstream</text>
</g>
<!-- A9&#45;&gt;A12 -->
<g id="edge12" class="edge">
<title>A9&#45;&gt;A12</title>
<path fill="none" stroke="#000000" d="M113.4482,-162.2503C107.804,-149.1313 101.2237,-133.8366 96.2224,-122.2121"/>
<polygon fill="none" stroke="#000000" points="110.373,-163.9589 117.5403,-171.7616 116.8032,-161.1924 110.373,-163.9589"/>
</g>
<!-- A13 -->
<g id="node14" class="node">
<title>A13</title>
<polygon fill="#ff0000" stroke="#000000" points="630.7801,-122 563.9939,-122 563.9939,-86 630.7801,-86 630.7801,-122"/>
<text text-anchor="middle" x="597.387" y="-101" font-family="Helvetica,sans-Serif" font-size="10.00" fill="#000000">ofstream</text>
</g>
<!-- A10&#45;&gt;A13 -->
<g id="edge13" class="edge">
<title>A10&#45;&gt;A13</title>
<path fill="none" stroke="#000000" d="M560.3282,-163.0195C568.6712,-149.7325 578.5093,-134.0645 585.9515,-122.2121"/>
<polygon fill="none" stroke="#000000" points="557.1926,-161.4315 554.839,-171.7616 563.1209,-165.1539 557.1926,-161.4315"/>
</g>
<!-- A14 -->
<g id="node15" class="node">
<title>A14</title>
<polygon fill="#ff0000" stroke="#000000" points="317.2219,-36 255.5521,-36 255.5521,0 317.2219,0 317.2219,-36"/>
<text text-anchor="middle" x="286.387" y="-15" font-family="Helvetica,sans-Serif" font-size="10.00" fill="#000000">fstream</text>
</g>
<!-- A11&#45;&gt;A14 -->
<g id="edge14" class="edge">
<title>A11&#45;&gt;A14</title>
<path fill="none" stroke="#000000" d="M286.387,-75.4762C286.387,-62.5329 286.387,-47.6086 286.387,-36.2121"/>
<polygon fill="none" stroke="#000000" points="282.8871,-75.7616 286.387,-85.7616 289.8871,-75.7616 282.8871,-75.7616"/>
</g>
<!-- A18 -->
<g id="node19" class="node">
<title>A18</title>
<polygon fill="#ffa500" stroke="#000000" points="223.1063,-122 137.6677,-122 137.6677,-86 223.1063,-86 223.1063,-122"/>
<text text-anchor="middle" x="180.387" y="-101" font-family="Helvetica,sans-Serif" font-size="10.00" fill="#000000">istringstream</text>
</g>
<!-- A15&#45;&gt;A18 -->
<g id="edge18" class="edge">
<title>A15&#45;&gt;A18</title>
<path fill="none" stroke="#000000" d="M226.2673,-163.7834C215.9476,-150.3365 203.6347,-134.2924 194.3637,-122.2121"/>
<polygon fill="none" stroke="#000000" points="223.5253,-165.9594 232.3901,-171.7616 229.0785,-161.6976 223.5253,-165.9594"/>
</g>
<!-- A19 -->
<g id="node20" class="node">
<title>A19</title>
<polygon fill="#ffa500" stroke="#000000" points="737.4471,-122 649.3269,-122 649.3269,-86 737.4471,-86 737.4471,-122"/>
<text text-anchor="middle" x="693.387" y="-101" font-family="Helvetica,sans-Serif" font-size="10.00" fill="#000000">ostringstream</text>
</g>
<!-- A16&#45;&gt;A19 -->
<g id="edge19" class="edge">
<title>A16&#45;&gt;A19</title>
<path fill="none" stroke="#000000" d="M676.5661,-161.8639C680.3545,-148.8318 684.7467,-133.7226 688.0928,-122.2121"/>
<polygon fill="none" stroke="#000000" points="673.1195,-161.1821 673.6889,-171.7616 679.8412,-163.1361 673.1195,-161.1821"/>
</g>
<!-- A20 -->
<g id="node21" class="node">
<title>A20</title>
<polygon fill="#ffa500" stroke="#000000" points="446.887,-36 363.887,-36 363.887,0 446.887,0 446.887,-36"/>
<text text-anchor="middle" x="405.387" y="-15" font-family="Helvetica,sans-Serif" font-size="10.00" fill="#000000">stringstream</text>
</g>
<!-- A17&#45;&gt;A20 -->
<g id="edge20" class="edge">
<title>A17&#45;&gt;A20</title>
<path fill="none" stroke="#000000" d="M405.387,-75.4762C405.387,-62.5329 405.387,-47.6086 405.387,-36.2121"/>
<polygon fill="none" stroke="#000000" points="401.8871,-75.7616 405.387,-85.7616 408.8871,-75.7616 401.8871,-75.7616"/>
</g>
</g>
</svg>
